<svg  xmlns="http://www.w3.org/2000/svg" fill="blue" viewBox="0 0 263.31 301.86"><defs><style>.cls-1{fill; width; marginBottom}</style></defs><g id="Layer_2" data-name="Layer 2"><g id="Layer_1-2" data-name="Layer 1"><polygon class="cls-1" points="0 82 126.41 155.43 126.41 194.11 88.41 171.77 88.41 221.36 126.41 243.56 126.41 301.86 0 228.57 0 82"/><path class="cls-1" d="M206.46,43.41,178,59.75l-27.43-16L178,26.88,131.67,0,4.86,73.74l126.81,73.19L258.41,73.74ZM75.64,55.78,103.22,39.5,131,55.82,103,72.13Zm80.13,49L128.45,88.41,156,72.13l27.79,16.31Z"/><polygon class="cls-1" points="136.63 301.86 263.31 228.71 263.31 82 220.81 106.8 220.81 155.11 178.04 179.99 178.04 131.04 136.63 155.47 136.63 301.86"/></g></g></svg>